<?xml version="1.0" encoding="UTF-8"?><svg id="Layer_2" xmlns="http://www.w3.org/2000/svg" xmlns:xlink="http://www.w3.org/1999/xlink" viewBox="0 0 399.2 444.99"><defs><style>.cls-1{fill:#68a7dd;}.cls-2{fill:#fff;}.cls-3{fill:url(#linear-gradient-5);}.cls-3,.cls-4,.cls-5,.cls-6,.cls-7{stroke:#f2f2f2;stroke-miterlimit:10;stroke-width:.5px;}.cls-8{fill:#f4eeeb;}.cls-9{fill:#e69485;}.cls-4{fill:url(#linear-gradient-3);}.cls-10{fill:#241515;}.cls-11{fill:#d9f0ff;}.cls-12{fill:#7bc3ff;}.cls-13{fill:#3b2323;}.cls-14{fill:#282828;}.cls-5{fill:url(#linear-gradient-2);}.cls-15{fill:#e6b3aa;}.cls-6{fill:url(#linear-gradient-4);}.cls-16{fill:#f5b022;}.cls-7{fill:url(#linear-gradient);}.cls-17{fill:none;opacity:.25;}.cls-18{fill:#e3b2cf;}</style><linearGradient id="linear-gradient" x1="47" y1="285.12" x2="70.62" y2="285.12" gradientUnits="userSpaceOnUse"><stop offset="0" stop-color="#fff"/><stop offset="1" stop-color="#ebebeb"/></linearGradient><linearGradient id="linear-gradient-2" x1="51.27" y1="279.5" x2="78.38" y2="279.5" xlink:href="#linear-gradient"/><linearGradient id="linear-gradient-3" x1="51.46" y1="273.03" x2="85.92" y2="273.03" gradientTransform="translate(166.27 8.94) rotate(34.4)" xlink:href="#linear-gradient"/><linearGradient id="linear-gradient-4" x1="63.15" y1="262.75" x2="99.26" y2="262.75" gradientTransform="translate(185.3 8.2) rotate(39.42)" xlink:href="#linear-gradient"/><linearGradient id="linear-gradient-5" x1="76" y1="252.54" x2="110.47" y2="252.54" gradientTransform="translate(158.98 -8.51) rotate(34.4)" xlink:href="#linear-gradient"/></defs><g id="Layer_6"><g class="cls-17"><path class="cls-1" d="m304.5,23.54l1.31-3.97,1.47,3.97s2.96.51,2.99.79c.03.27-2.83,1.11-2.83,1.11,0,0-1.21,3.84-1.65,2.97-.44-.87-.86-2.8-.86-2.8,0,0-3.72-.78-3.72-1.16,0-.41,3.29-.91,3.29-.91Z"/></g><path class="cls-14" d="m220.49,15.43s-7.43,237.19,1.34,239.53c14.79,3.95,164.73,8.51,170.84-.89,6.11-9.4,8.47-229.23,4.75-238.3-3.11-7.56-176.88-5.3-176.92-.34Z"/><path class="cls-2" d="m229.06,20.48s-6.78,217.44,1.22,219.59c13.5,3.62,150.37,7.8,155.94-.82,5.57-8.62,7.73-210.14,4.33-218.46-2.84-6.93-161.45-4.86-161.49-.31Z"/><path class="cls-12" d="m275.86,46.01s-4.7.16-10.47.37c-.22-5.48-.43-9.9-.56-10.24-.34-.91-10.93-.25-10.93.84,0,0,.01,4.36.16,9.85-5.16.22-9.28.44-9.61.57-.87.36-.24,11.43.8,11.42,0,0,4.13-.01,9.36-.17.4,5.43,1.02,9.86,1.99,10.25,1.15.46,9.54.06,9.54.06,0,0-.15-4.88-.35-10.87,5.28-.42,9.61-1.07,9.99-2.1.44-1.2.05-9.98.05-9.98Z"/><path class="cls-11" d="m299.88,42.7s.08,6.93.85,7.04c3.49.52,80.52.73,81.04-1.07.28-.97.45-7.09-.78-7.13-3.46-.11-80.95-.56-81.12,1.16Z"/><path class="cls-14" d="m343.25,56.93h35.8c.71,0,.71-1.1,0-1.1h-35.8c-.71,0-.71,1.1,0,1.1h0Z"/><path class="cls-14" d="m319.32,62.96h60.08c.71,0,.71-1.1,0-1.1h-60.08c-.71,0-.71,1.1,0,1.1h0Z"/><path class="cls-12" d="m391.15,33.33c-.26-6.69-.6-10.99-1.04-12.07-1.75-4.28-62.97-5.13-109.51-4.08.08.21,5.72,14.35,12.57,15.84,6.91,1.5,97.48,2.15,97.48,2.15l.5-1.84Z"/><path class="cls-12" d="m378,242.39c-.49-2.37-4.4-19.42-16.85-22.49-12.93-3.19-126.6-2.84-134.5-2.81.59,14.07,1.6,23.03,3.19,23.46,11.81,3.16,118.01,6.76,148.16,1.85Z"/><path class="cls-14" d="m227.63,20.49c-.04,1.35-.08,2.7-.12,4.06-.11,3.73-.22,7.46-.32,11.19-.16,5.65-.31,11.3-.45,16.95-.18,7.12-.35,14.24-.51,21.36-.18,8.13-.35,16.26-.5,24.39-.16,8.73-.31,17.45-.43,26.18-.12,8.79-.22,17.58-.28,26.38-.06,8.44-.09,16.88-.07,25.32.02,7.66.08,15.32.21,22.98.11,6.36.27,12.73.56,19.09.21,4.65.46,9.3.97,13.93.27,2.47.43,5.35,1.51,7.64.33.69.72,1.05,1.46,1.23,1.48.35,3.01.53,4.51.71,5.36.65,10.76,1.01,16.14,1.34,7.75.49,15.5.84,23.26,1.14,9.1.35,18.2.6,27.31.77,9.31.17,18.62.26,27.93.23,8.49-.03,16.99-.16,25.48-.48,6.62-.25,13.25-.59,19.84-1.35,2.3-.27,4.61-.58,6.88-1.06,1.47-.31,3-.67,4.33-1.37,1.81-.95,2.03-2.94,2.35-4.79.65-3.83.97-7.72,1.28-11.59.47-5.93.81-11.87,1.11-17.8.37-7.47.67-14.94.92-22.42.29-8.52.53-17.04.73-25.56.22-9.1.4-18.19.54-27.29.14-9.08.26-18.17.33-27.25.07-8.6.12-17.2.12-25.8,0-7.6-.02-15.21-.1-22.81-.06-6.1-.16-12.2-.33-18.3-.12-4.1-.25-8.2-.57-12.29-.09-1.16-.19-2.33-.39-3.48-.12-.69-.25-1.32-.84-1.76-.79-.59-1.89-.83-2.83-1.06-1.7-.4-3.43-.64-5.16-.86-5.41-.69-10.87-1.01-16.31-1.29-7.39-.38-14.79-.59-22.19-.74-8.53-.17-17.06-.24-25.59-.25-8.85,0-17.71.06-26.56.2-8.26.13-16.51.31-24.76.58-6.85.22-13.71.5-20.55.91-4.63.28-9.27.57-13.87,1.2-.98.13-4.98.28-5.04,1.84-.03.71,1.08.71,1.1,0,0,.19-.1.16-.03.17,0,0-.12.05.03-.01.07-.03.12-.07.19-.1-.1.04.25-.09.38-.13.22-.07.44-.12.66-.18,1.33-.32,2.7-.49,4.06-.66,4.86-.58,9.75-.88,14.63-1.15,6.99-.39,13.98-.66,20.98-.87,8.28-.25,16.57-.43,24.85-.54,8.75-.12,17.5-.17,26.26-.15,8.4.02,16.79.1,25.19.28,7.22.16,14.44.38,21.65.77,5.2.28,10.43.6,15.6,1.3,1.59.22,3.19.46,4.74.87.44.12,1.14.34,1.39.45.39.18.55.28.73.46,0,0,0-.05.03.09.03.14.08.27.11.41.08.36.16.85.19,1.14.16,1.18.27,2.59.35,3.86.29,4.32.42,8.65.53,12.97.16,6.26.25,12.51.3,18.77.07,7.68.09,15.36.08,23.03-.01,8.6-.06,17.2-.14,25.81-.08,9.03-.2,18.06-.35,27.09-.15,8.96-.33,17.92-.55,26.87-.21,8.39-.45,16.78-.74,25.17-.26,7.32-.55,14.65-.93,21.97-.29,5.76-.63,11.52-1.1,17.28-.3,3.67-.6,7.38-1.26,11.01-.16.85-.37,1.99-.67,2.67-.1.23-.2.4-.45.61-.2.16-.86.52-1.19.66-3.73,1.54-8.13,1.84-12.1,2.24-6.81.69-13.65,1.01-20.49,1.23-8.56.29-17.12.38-25.68.39-9.26,0-18.52-.09-27.77-.28-8.88-.18-17.77-.44-26.64-.8-7.55-.3-15.1-.66-22.65-1.15-5.15-.34-10.31-.68-15.42-1.34-1.31-.17-2.65-.34-3.93-.68.04,0-.02-.01-.02-.01-.17-.2-.06-.03-.16-.19-.24-.38-.25-.46-.38-.84-.89-2.62-1.1-5.53-1.37-8.27-.47-4.85-.71-9.73-.91-14.6-.26-6.49-.41-12.99-.5-19.49-.12-7.68-.16-15.37-.17-23.05,0-8.43.03-16.86.1-25.29.07-8.73.17-17.46.3-26.19.12-8.59.27-17.17.43-25.76.15-8,.32-16,.5-24,.16-6.97.33-13.94.5-20.91.14-5.5.29-11,.44-16.49.1-3.58.2-7.16.31-10.74.04-1.22.07-2.45.11-3.67.02-.71-1.08-.71-1.1,0Z"/><path class="cls-11" d="m242.24,83.76s-1.96,6.61,0,7.39c1.96.79,100.7,1.25,102.1-.54,1.4-1.79,0-4.59,0-5.79s-102.1-1.06-102.1-1.06Z"/><path class="cls-11" d="m248.94,107.42s-.58,6.61,0,7.39c.58.79,29.83,1.25,30.25-.54s0-4.59,0-5.79-30.25-1.06-30.25-1.06Z"/><path class="cls-11" d="m248.94,123s-.58,6.61,0,7.39c.58.79,29.83,1.25,30.25-.54s0-4.59,0-5.79-30.25-1.06-30.25-1.06Z"/><path class="cls-11" d="m240.8,202.82s-2.6,6.61,0,7.39,133.65,1.25,135.5-.54,0-4.59,0-5.79-135.5-1.06-135.5-1.06Z"/><path class="cls-14" d="m333.41,194.38c-9.26,0-18.95-.06-28.22-.17-22.35-.25-65.07-1.08-66.83-2.41l-.17-.13v-.22c-.36-30.96-.52-66.08.94-91.82l.02-.27.24-.11c2.63-1.19,46.19-1.06,71.51-.8,25.32.26,68.82,1.04,71.28,2.26.37.18.64.65.89,1.52,3.15,10.91,1.37,86.67-.71,90.08-.16.25-.49.47-1.62.68-5.34,1.02-25.07,1.38-47.32,1.38Zm-94.35-3.22c3.05.87,35.05,1.88,71.18,2.22,41.14.39,69.82-.24,71.39-1.56.9-1.49,1.94-22.81,2.2-45.59.33-29.83-.79-43.96-2.05-44.72-3.83-1.9-134.3-3.26-141.79-1.52-1.43,25.6-1.27,60.42-.92,91.17Z"/><path class="cls-12" d="m333.86,165.99c-.9.06-1.43.77-1.44,1.66-.01,1.09.83,1.81,1.86,1.95,2.6.37,5.6-1.71,7.24-3.53,1.63-1.8,3.49-5.13,1.03-7.07-2.36-1.86-5.84-.06-8.14,1.05-2.88,1.39-5.53,3.23-7.86,5.42-2.3,2.16-4.44,4.7-5.44,7.74-.9,2.73-.56,5.68,1.29,7.93,1.98,2.42,5.03,3.48,8.09,3.62,6.43.3,13.07-2.25,18.11-6.14,1.96-1.51,5.03-4.16,3.35-6.93-1.62-2.67-5.16-1.74-7.38-.49-2.31,1.31-4.32,3.96-3.27,6.74,1.12,2.96,4.61,3.2,7.29,3.01,6.3-.45,13.12-2.36,16.61-8.09,1.21-1.99,2.23-5.97-.86-6.94-1.35-.42-2.65.46-3.72,1.17-1.14.76-2.23,1.68-2.91,2.9-1.31,2.38-.57,5.37,1.33,7.2,2.2,2.12,5.49,2.39,8.35,1.79,1.83-.39,3.57-1.11,5.29-1.83.65-.27.36-1.34-.29-1.06-4.1,1.71-10.92,4.1-13.65-1.12-1.21-2.31-.43-4.63,1.5-6.23.83-.69,2.2-1.79,3.3-1.78,1.77.01,1.96,2.17,1.58,3.47-1.37,4.67-6.52,7.5-10.9,8.59-2.46.61-5.17,1.02-7.72.9-2.65-.12-5.22-1.94-4.11-4.87.84-2.25,4.02-4.12,6.39-3.99,1.37.08,2.63,1.06,2.5,2.53-.12,1.27-1.14,2.3-2.04,3.1-3.56,3.16-8.03,5.36-12.66,6.39-4.58,1.01-10.71,1.26-13.69-3.11-3.01-4.41.37-9.6,3.53-12.82,1.92-1.96,4.1-3.66,6.48-5.04,1.04-.6,2.12-1.15,3.22-1.63,1.31-.56,2.88-1.3,4.34-1.15,1.77.18,2.51,1.7,1.97,3.3-.43,1.26-1.33,2.37-2.29,3.28-1,.94-2.19,1.7-3.48,2.18-.54.2-1.13.4-1.71.43-.35.02-.69.01-.99-.19-.23-.15-.87-1.19-.1-1.24.71-.05.71-1.15,0-1.1h0Z"/><path class="cls-11" d="m251.77,231.68c0,3-2.33,5.44-5.2,5.44s-5.2-2.43-5.2-5.44,2.33-5.44,5.2-5.44,5.2,2.43,5.2,5.44Z"/><path class="cls-14" d="m257.54,231.11h8.56c.71,0,.71-1.1,0-1.1h-8.56c-.71,0-.71,1.1,0,1.1h0Z"/><path class="cls-14" d="m268.96,231.11h8.56c.71,0,.71-1.1,0-1.1h-8.56c-.71,0-.71,1.1,0,1.1h0Z"/><path class="cls-14" d="m279.92,231.11h8.56c.71,0,.71-1.1,0-1.1h-8.56c-.71,0-.71,1.1,0,1.1h0Z"/><path class="cls-14" d="m257.54,234.82h30.07c.71,0,.71-1.1,0-1.1h-30.07c-.71,0-.71,1.1,0,1.1h0Z"/><path class="cls-11" d="m319.73,231.68c0,3-2.33,5.44-5.2,5.44s-5.2-2.43-5.2-5.44,2.33-5.44,5.2-5.44,5.2,2.43,5.2,5.44Z"/><path class="cls-14" d="m325.5,231.11h8.56c.71,0,.71-1.1,0-1.1h-8.56c-.71,0-.71,1.1,0,1.1h0Z"/><path class="cls-14" d="m336.93,231.11h8.56c.71,0,.71-1.1,0-1.1h-8.56c-.71,0-.71,1.1,0,1.1h0Z"/><path class="cls-14" d="m347.88,231.11h8.56c.71,0,.71-1.1,0-1.1h-8.56c-.71,0-.71,1.1,0,1.1h0Z"/><path class="cls-14" d="m325.5,234.82h30.07c.71,0,.71-1.1,0-1.1h-30.07c-.71,0-.71,1.1,0,1.1h0Z"/><path class="cls-14" d="m287.36,111.36h59.33c.71,0,.71-1.1,0-1.1h-59.33c-.71,0-.71,1.1,0,1.1h0Z"/><path class="cls-14" d="m312.43,140.27h20.38c.71,0,.71-1.1,0-1.1h-20.38c-.71,0-.71,1.1,0,1.1h0Z"/><path class="cls-14" d="m338.93,140.27h31.05c.71,0,.71-1.1,0-1.1h-31.05c-.71,0-.71,1.1,0,1.1h0Z"/><path class="cls-14" d="m290.09,127.1h37.75c.71,0,.71-1.1,0-1.1h-37.75c-.71,0-.71,1.1,0,1.1h0Z"/><path class="cls-14" d="m248.59,140.27h59.33c.71,0,.71-1.1,0-1.1h-59.33c-.71,0-.71,1.1,0,1.1h0Z"/><path class="cls-14" d="m248.59,154.34h59.33c.71,0,.71-1.1,0-1.1h-59.33c-.71,0-.71,1.1,0,1.1h0Z"/><path class="cls-14" d="m312.43,154.34h20.38c.71,0,.71-1.1,0-1.1h-20.38c-.71,0-.71,1.1,0,1.1h0Z"/><path class="cls-14" d="m338.93,153.69h31.05c.71,0,.71-1.1,0-1.1h-31.05c-.71,0-.71,1.1,0,1.1h0Z"/><path class="cls-14" d="m349.73,147.01h20.24c.71,0,.71-1.1,0-1.1h-20.24c-.71,0-.71,1.1,0,1.1h0Z"/><path class="cls-14" d="m248.59,147.01h22.89c.71,0,.71-1.1,0-1.1h-22.89c-.71,0-.71,1.1,0,1.1h0Z"/><path class="cls-14" d="m276.93,147.01h68.04c.71,0,.71-1.1,0-1.1h-68.04c-.71,0-.71,1.1,0,1.1h0Z"/><path class="cls-14" d="m248.59,161.25h37.75c.71,0,.71-1.1,0-1.1h-37.75c-.71,0-.71,1.1,0,1.1h0Z"/><path class="cls-14" d="m281.53,2.27c-.1,1.21-2.94,19.72,2.04,20.09,4.97.38,55.49,1.61,56.43,0,.93-1.61,3.34-19.69-.98-20.09-4.32-.4-57.28-2.71-57.49,0Z"/><path class="cls-10" d="m178.37,29.09c-1.19.66-2.39,1.31-3.59,1.96.09.71.16,1.4.26,2.02.1.62.19,1.25.28,1.87,1.51,10.77,1.25,21.79-.78,32.48-.86,4.51-2.6,9.35-5.53,12.99l5.37,1.63s-5.1,13.19-8.7,16.9c-1.5,1.54-3.96,2.65-6.72,2.81-.04.1-.07.21-.11.31-2.15,5.13-6.88,9.23-11.47,12.16-6,3.84-11.35,8.13-16.96,12.47-4.44,3.43-9.69,5.41-14.53,1.37-.18-.15-.35-.31-.53-.46l1.54,18.33-.06.04,39.28,16.7,7.84,3.12c6.58,2.62,11.6,7.65,14.35,13.77v-.02s.07.19.07.19c.4.9.75,1.82,1.04,2.76l3.77-9.32,1.73.7c-.74-19.44-2.67-39.06-2.89-58.31.87-.97,1.72-1.96,2.47-3.05,10.43-15.06,11.7-40.54,9.41-58.4-1.78-13.96-6.29-30.08-18.15-37.77-1.14-.74-2.38-1.43-3.65-1.97,3.79,4.1,5.29,9.01,6.22,14.29.03.15.05.31.07.46Z"/><path class="cls-13" d="m75.39,41.86s0,0,0,0c4.81,3.11,10.49,5.19,16.42,6.32,28.78,5.67,54.46-2.49,78.5-14.79,1.39-1.89,2.63-3.87,3.68-5.96.25.63.44,1.32.57,2.03.1.52.17,1.06.23,1.58,1.2-.64,2.4-1.29,3.59-1.96-.03-.15-.05-.31-.07-.46-.93-5.28-2.43-10.19-6.22-14.29-.87-.94-1.87-1.85-3-2.7-5.22-3.92-11.49-5.81-17.67-7.36C140.4,1.54,129.14-.35,117.87.05c-11.27.41-22.58,3.19-32.29,9.3-9.05,5.69-15.87,12.84-20.87,20.95,2.44,4.82,6.18,8.64,10.67,11.55Z"/><path class="cls-10" d="m78.14,110.99c1.9,2.91,4.14,5.56,6.8,7.82,2.13-5.53,4.71-10.92,7.07-16.35,4.13-9.52,10.49-17.84,18.06-24.88.66-.61,1.32-1.21,1.99-1.8,2.13-1.87,4.34-3.65,6.62-5.33,1.13-.83,2.27-1.55,3.42-2.22.74-.44,1.49-.85,2.24-1.25,2.75-1.45,5.54-2.68,8.33-4.08,1.6.53,3.16,1.22,4.65,1.98.25.13.53.26.81.22.5-.08.8-.69.9-1.24.24-1.38-.25-2.92-1.16-3.86,6.2-3.7,12.17-7.84,17.85-12.29,5.36-4.21,10.58-8.86,14.59-14.32-24.04,12.3-49.72,20.46-78.5,14.79-5.92-1.13-11.61-3.2-16.42-6.32,0,0,0,0,0,0-4.5-2.91-8.24-6.73-10.67-11.55-19,30.84-11.57,75.67,1.09,108.02.72,1.85,1.47,3.69,2.24,5.51l2.75-1.08,7.35-31.77Z"/><path class="cls-10" d="m160.99,91.35c-.54,2.7-.69,5.5-1.35,8.17,1.68-.3,3.21-1.14,4.59-2.37,2.49-2.23,7.54-13.67,7.54-13.67l-4.27-1.39c-2.7,2.78-5.7,5.19-6.51,9.27Z"/><path class="cls-9" d="m220.28,299.94l1-.03-11.89-48.81c.77-1.45,1.68-2.83,2.36-4.32.83-1.83,1.31-3.8,1.73-5.76,1.49-6.96,2.37-14.05,2.63-21.16.06-1.5.08-3.02-.23-4.49-.74-3.46-2.88-5.85-5.23-8.23-.09-.16-.21-.29-.36-.37-.03-.01-.04-.04-.07-.06-1.18-.5-5.79,1.62-7.02,2-2.85.87-5.67,1.82-8.46,2.86-.33.12-.83.28-1.37.47-1.69.6-3.78,1.59-2.55,3.34,1.01,1.44,4.09,1.05,5.57,1.14,3.17.19,6.76.13,10.11-.36l-1.14,2.82c-1.02-.47-2.25-.62-3.39-.66-2.11-.08-4.22.05-6.32.18-3.35.2-6.7.41-10.05.61-1.11.07-6.02.07-6.68,1.31-.49.91,1.05,2.68,1.65,3.16,1.02.81,2.3,1.21,3.58,1.46,3.14.61,6.39.5,9.55.87l.33.04c2.73.35,5.52.49,8.29.55l-.42,1.04c-.22-.02-.44-.04-.66-.06-2.24-.21-4.5-.21-6.73.02-1.23.12-2.48.33-3.56.92-.25.13-.48.29-.7.45-.58.42-1.09.93-1.6,1.43-2.34,2.3-4.68,4.6-6.76,7.14-.41.5-.81,1.03-.95,1.66-.14.63.09,1.38.66,1.66.38.18.83.14,1.24.06,2.64-.49,4.97-1.98,7.21-3.46,1.31-.87,2.62-1.74,4.03-2.44.91-.46,1.86-.84,2.85-1.06.82-.18,1.66-.23,2.5-.23l-.18.44c-.25.02-.5.04-.75.07-1.1.13-2.2.32-3.2.79-1.07.51-1.96,1.31-2.83,2.11-1.39,1.26-2.77,2.52-4.14,3.8-1.32,1.24-2.67,2.57-3.2,4.3-.08.26-.14.54-.08.81.19.9,1.43,1.02,2.33.82,2.67-.62,4.95-2.29,7.29-3.71.4-.24.81-.44,1.21-.65l-5.28,13.05-5.52-2.24c-.42,2.6-1.47,5.08-2.72,7.41-3.26,6.09-7.92,11.41-13.47,15.52l-.19,1.35-1.4,6.17,14.29,21.95c7.67,14.67,26.04,20.6,34.58,18.88,10.83-2.19,4.14-24.47,4.14-24.47l-.02-.05Z"/><path class="cls-10" d="m64.97,376.79l-25.2-7.98-17.45,55.09,104.46,21.08,51.49-31.39-5.63-44.7-11.26,4.47c-30.78,12.21-64.83,13.42-96.4,3.43Z"/><path class="cls-9" d="m120.86,208c7.09-5.74,14.85-10.83,23.9-11.83.32-.03.63-.06.95-.08.02-.02.04-.03.06-.05,10.64-9.42,8.09-20.12,10.32-33.39l-39.28-16.7.06-.04-1.54-18.33c-3.22-2.74-6.2-5.75-8.98-8.93-3.65-4.17-6.98-8.6-10.17-13.13,3.89-8.01,9.31-15.19,16.08-21.1-1.33-2.26-1.98-4.6-2.2-6.84-7.56,7.04-13.93,15.37-18.06,24.88-2.35,5.43-4.94,10.82-7.07,16.35-2.66-2.25-4.9-4.91-6.8-7.82l-7.35,31.77-2.75,1.08-13.45,5.3c13.15,30.93,38.19,61.89,66.27,58.86Z"/><path class="cls-16" d="m179.39,182.46c-.3-.94-.64-1.86-1.04-2.76-.02-.05-.05-.11-.07-.16-2.75-6.12-7.77-11.15-14.35-13.77l-7.84-3.12c-2.23,13.27.32,23.97-10.32,33.39-.02.02-.04.03-.06.05,4.9-.43,9.84-.08,14.74.46,4.2.46,8.38,1.05,12.54,1.75l6.41-15.83Z"/><path class="cls-16" d="m168.87,276.12c5.55-4.11,10.21-9.43,13.47-15.52,1.25-2.33,2.31-4.81,2.72-7.41l-29.48-11.94,15.22-37.58c-.41,0-.81-.02-1.17-.01-2.67.03-5.39-.12-8.05.08-1.18.09-5.31,1.47-6.15,1.05,1.23.62,2.64,1,3.92,1.58.64.29,1.31.64,1.63,1.26.32.64.19,1.4.03,2.09-.51,2.27-2.42,5.21-2.43,7.45,0,1.94,1.88,3.25,1.2,5.61-.38,1.31-1.28,2.39-1.98,3.55-.7,1.16-1.23,2.59-.77,3.87.18.49.49.95.46,1.47-.03.64-.58,1.12-1.08,1.52-3.13,2.49-6.26,4.99-9.38,7.48-1.17-.08-2.32.34-3.49.49-1.17.16-2.52-.03-3.21-.98-.86-1.17-.21-2.95.97-3.79,1.18-.85,2.7-1.01,4.14-1.15.29-.99.57-1.98.86-2.97-.04.14-8.52.89-9.38,1.06-3.08.64-5.6,1.68-8.41,2.95-2.19.99-3.91,2.08-5.51,3.29l-69.92,74.47-20.64,52.45,7.32,2.32,25.2,7.98c31.57,9.99,65.62,8.78,96.4-3.43l11.26-4.47,2.1-.83-14.74-52.31,7.29-32.11,1.4-6.17.19-1.35Z"/><path class="cls-9" d="m113.57,83.33c1.79-1.48,3.67-2.88,5.64-4.18-.41-.75-.15-1.92.05-2.69.44-1.69,1.12-3.32,2.02-4.82.34-.57.74-1.14,1.3-1.51,1.33-.86,2.08.13,3.13.83,1.13.75,2.4,1.29,3.73,1.56-.09-.02-.78.54-.93.61-.43.2-.91.33-1.38.37-1.24.11-1.42-.79-2.12.55-.38.73-.72,1.48-1.06,2.23,2.88-1.64,5.84-3.26,8.82-4.88l-10.65-3.19c-1.15.68-2.29,1.4-3.42,2.22-2.28,1.67-4.49,3.45-6.62,5.33-.09,2.65.25,5.38,1.51,7.55Z"/><path class="cls-9" d="m175.31,34.93c-.09-.62-.18-1.25-.28-1.87-.1-.61-.17-1.3-.26-2.02-.06-.52-.13-1.05-.23-1.58-.13-.71-.31-1.41-.57-2.03-1.05,2.09-2.29,4.07-3.68,5.96-4.01,5.46-9.23,10.11-14.59,14.32-5.67,4.45-11.65,8.59-17.85,12.29.92.94,1.4,2.48,1.16,3.86-.09.55-.39,1.15-.9,1.24-.28.05-.56-.09-.81-.22-1.49-.76-3.04-1.46-4.65-1.98-2.79,1.39-5.58,2.63-8.33,4.08l10.91,3.08c16.62-9.05,33.33-18.63,40.06-35.12Z"/><path class="cls-15" d="m123.52,77.21c-.7,1.49-1.86,3.45-3.79,2.47-.25-.13-.41-.31-.53-.53-1.97,1.3-3.85,2.69-5.64,4.18.37.63.8,1.22,1.34,1.74,5.89,5.79,15.58,7.15,19.36,3.76,2.49-2.23,6.45-15.03,6.45-15.03l-7.96-2.38c-2.98,1.62-5.94,3.23-8.82,4.88-.14.31-.28.62-.42.92Z"/><path class="cls-15" d="m159.65,99.52c.66-2.68.81-5.47,1.35-8.17.81-4.07,3.82-6.49,6.51-9.27l-18.76-6.12s-5.01,13.47.87,19.26c3.74,3.68,7.11,4.83,10.04,4.3Zm-9.9-15.88c.37-1.43.95-2.82,1.72-4.08.6-1,1.69-2.1,2.85-1.32,1.28.85,2.14,2.08,3.58,2.8l.1.08-.15.24c-1.05.51-2.33.55-3.41.08-.7,1.51-1.64,6.28-4.27,4.94-.93-.48-.62-1.89-.41-2.73Z"/><path class="cls-15" d="m130.4,126.67c5.6-4.34,10.95-8.64,16.96-12.47,4.59-2.93,9.33-7.03,11.47-12.16.04-.1.07-.21.11-.31-3.87.22-8.33-1.46-11.64-6.57-.67-1.03-1.17-2.08-1.56-3.13.32,2.09.92,4.16,1.57,6.31.54,1.77.82,3.6-.16,4.86-.53.68-1.39,1.08-2.25,1.41-1.64.64-3.37,1.1-5.15,1.38.11-1.37,1.76-2.43,2.91-3.07,1.25-.7,1.75-1.74,1.73-3.14-.02-1.21-.43-2.4-.78-3.58-.63-2.17-1.06-4.41-.77-6.59.18-1.35.63-3.18,1.84-4.08,0-.15,0-.31,0-.46-2.12-1.88-4.61-1.95-5.71-1.87-1.2,2.92-2.55,5.62-3.84,6.96-3.61,3.7-16.86,3.63-22.53-5.14-.13-.19-.22-.39-.33-.59-6.76,5.91-12.19,13.09-16.08,21.1,3.2,4.53,6.52,8.96,10.17,13.13,2.78,3.18,5.76,6.19,8.98,8.93.18.15.35.31.53.46,4.84,4.03,10.09,2.06,14.53-1.37Zm-9.71-22.89c3.74.68,7.44,1.59,11.08,2.71,1.22.37,4.45,1.17,4.31,2.88-.17,2.18-4.71,2.33-6.07,2.05-3.41-.71-6.68-2.44-8.95-5.03-.64-.73-1.2-1.53-1.66-2.39.3-.34.84-.29,1.29-.21Z"/><path class="cls-9" d="m135.26,70.05l7.5,2.11s-1.34,4.74-3.16,9.47c3.01-.05,4.52.96,5.22,1.69.49-4.28,2.06-7.41,2.06-7.41l.94-1.96,21.18,6.44c2.93-3.64,4.68-8.48,5.53-12.99,2.04-10.69,2.29-21.71.78-32.48-6.73,16.5-23.44,26.07-40.06,35.12Zm33.31,7.85c-.62.41-1.31-1.07-1.62-1.43-.79-.93-1.64-1.79-2.59-2.51-1.64-1.23-3.69-1.88-5.71-2.36-.21-.05-.44-.11-.56-.3-.22-.33,0-.91.27-1.33.92-1.38,2.66-2.3,3.85-1.9,1.57.51,3.15,1.09,4.32,2.28,1.31,1.32,2.25,3.51,2.57,5.6.07.47.01,1.59-.54,1.95Z"/><path class="cls-9" d="m144.68,85.52c-1.21.89-1.66,2.73-1.84,4.08-.29,2.18.14,4.43.77,6.59.35,1.18.76,2.37.78,3.58.03,1.4-.48,2.44-1.73,3.14-1.15.64-2.8,1.7-2.91,3.07,1.78-.27,3.51-.74,5.15-1.38.85-.33,1.71-.74,2.25-1.41.99-1.26.7-3.08.16-4.86-.65-2.15-1.25-4.22-1.57-6.31-.82-2.21-1.1-4.44-1.07-6.5Z"/><path class="cls-8" d="m130.02,111.41c1.36.28,5.89.14,6.07-2.05.14-1.71-3.09-2.51-4.31-2.88-3.64-1.12-7.34-2.03-11.08-2.71-.45-.08-.99-.13-1.29.21.46.86,1.02,1.66,1.66,2.39,2.27,2.59,5.55,4.32,8.95,5.03Z"/><path class="cls-10" d="m150.15,86.37c2.63,1.34,3.58-3.43,4.27-4.94,1.08.46,2.36.43,3.41-.08l.15-.24-.1-.08c-1.44-.72-2.3-1.95-3.58-2.8-1.17-.78-2.25.32-2.85,1.32-.77,1.27-1.34,2.65-1.72,4.08-.22.83-.53,2.25.41,2.73Z"/><path class="cls-10" d="m119.74,79.68c1.92.98,3.09-.98,3.79-2.47.14-.31.28-.61.42-.92.34-.75.68-1.5,1.06-2.23.7-1.34.88-.44,2.12-.55.48-.04.95-.17,1.38-.37.15-.07.84-.63.93-.61-1.33-.27-2.6-.81-3.73-1.56-1.05-.7-1.8-1.69-3.13-.83-.56.36-.95.93-1.3,1.51-.9,1.5-1.59,3.12-2.02,4.82-.2.76-.45,1.94-.05,2.69.12.22.28.4.53.53Z"/><path class="cls-10" d="m166.54,70.35c-1.17-1.18-2.76-1.77-4.32-2.28-1.19-.39-2.93.52-3.85,1.9-.28.42-.49.99-.27,1.33.12.19.35.25.56.3,2.02.48,4.07,1.13,5.71,2.36.96.72,1.81,1.58,2.59,2.51.3.36.99,1.84,1.62,1.43.55-.36.61-1.49.54-1.95-.32-2.09-1.26-4.28-2.57-5.6Z"/><path class="cls-16" d="m45.08,237.17l1.78,31.32-.27,1.81,60.8-50.4c2.58-2.47,4.98-4.7,5.44-5.09,2.6-2.23,5.26-4.56,8.03-6.8-28.08,3.03-53.12-27.93-66.27-58.86l-36.67,20.22h0s-10.8,7.38-10.8,7.38c-7.57,7.69-7.86,18.42-6.47,27.73l6.1,41.08c12.31-4.4,25.81-11.56,38.33-8.4Z"/><path class="cls-1" d="m179.39,182.46l-6.41,15.83c.26.04.52.08.78.12,1.4.24,3.07.19,3.77,1.62.65,1.32-.07,2.54-1.38,3.11-1.44.63-3.6.56-5.36.53l-15.22,37.58,29.48,11.94,5.52,2.24,5.28-13.05c-.41.21-.81.41-1.21.65-2.34,1.42-4.62,3.09-7.29,3.71-.9.21-2.14.08-2.33-.82-.06-.27,0-.55.08-.81.53-1.73,1.88-3.07,3.2-4.3,1.36-1.28,2.75-2.54,4.14-3.8.87-.79,1.77-1.6,2.83-2.11,1-.47,2.1-.66,3.2-.79.25-.03.5-.04.75-.07l.18-.44c-.84,0-1.68.05-2.5.23-.99.22-1.94.6-2.85,1.06-1.4.7-2.72,1.58-4.03,2.44-2.24,1.48-4.57,2.97-7.21,3.46-.41.08-.86.12-1.24-.06-.58-.28-.8-1.03-.66-1.66.13-.63.54-1.16.95-1.66,2.07-2.54,4.42-4.85,6.76-7.14.51-.5,1.03-1.01,1.6-1.43.22-.16.46-.32.7-.45,1.08-.59,2.33-.79,3.56-.92,2.24-.23,4.5-.23,6.73-.02.22.02.44.04.66.06l.42-1.04c-2.77-.06-5.56-.2-8.29-.55l-.33-.04c-3.16-.38-6.42-.26-9.55-.87-1.28-.25-2.56-.66-3.58-1.46-.61-.48-2.14-2.25-1.65-3.16.67-1.24,5.57-1.25,6.68-1.31,3.35-.2,6.7-.41,10.05-.61,2.11-.13,4.22-.25,6.32-.18,1.14.04,2.37.19,3.39.66l1.14-2.82c-3.35.49-6.94.55-10.11.36-1.48-.09-4.56.3-5.57-1.14-1.23-1.75.87-2.74,2.55-3.34.54-.19,1.04-.34,1.37-.47,2.79-1.04,5.61-1.99,8.46-2.86,1.22-.37,5.84-2.5,7.02-2,.03.01.04.04.07.06l7.87-19.43-33.27-13.47-1.73-.7-3.77,9.32Z"/><path class="cls-15" d="m123,239.57c1.6-1.21,3.32-2.29,5.51-3.29,2.81-1.28,5.33-2.32,8.41-2.95.86-.18,9.34-.92,9.38-1.06-.29.99-.57,1.98-.86,2.97-1.45.14-2.97.3-4.14,1.15-1.18.85-1.83,2.62-.97,3.79.69.95,2.05,1.13,3.21.98,1.17-.16,2.31-.57,3.49-.49,3.13-2.49,6.26-4.99,9.38-7.48.5-.4,1.05-.88,1.08-1.52.03-.52-.29-.98-.46-1.47-.46-1.28.06-2.71.77-3.87.7-1.16,1.6-2.24,1.98-3.55.68-2.35-1.21-3.67-1.2-5.61,0-2.24,1.91-5.18,2.43-7.45.16-.7.29-1.46-.03-2.09-.32-.63-.99-.97-1.63-1.26-1.28-.58-2.69-.96-3.92-1.58.84.42,4.97-.96,6.15-1.05,2.66-.2,5.38-.05,8.05-.08.36,0,.76,0,1.17.01,1.77.04,3.93.1,5.36-.53,1.3-.57,2.03-1.79,1.38-3.11-.71-1.43-2.38-1.38-3.77-1.62-.26-.04-.52-.08-.78-.12-4.16-.7-8.34-1.29-12.54-1.75-4.89-.53-9.84-.89-14.74-.46-.32.03-.63.05-.95.08-9.05,1-16.81,6.09-23.9,11.83-2.77,2.24-5.43,4.57-8.03,6.8-.46.4-2.86,2.63-5.44,5.09l-60.8,50.4.27-1.81-1.78-31.32c-12.52-3.16-26.02,3.99-38.33,8.4l9.07,61.04c1.36,9.13,6.61,17.23,14.4,22.19l6.41,1.09c.6.28,1.36.22,1.91-.34l14.55-15.5,69.92-74.47Z"/><path class="cls-18" d="m135.13,90.15c1.3-1.33,2.65-4.04,3.84-6.96,1.1-.08,3.59-.01,5.71,1.87,0,.15,0,.3,0,.46-.03,2.06.25,4.29,1.07,6.5.39,1.05.89,2.11,1.56,3.13,3.31,5.12,7.77,6.79,11.64,6.57,2.76-.15,5.22-1.27,6.72-2.81,3.6-3.7,8.7-16.9,8.7-16.9l-5.37-1.63-21.18-6.44-.94,1.96s-1.57,3.14-2.06,7.41c-.7-.74-2.21-1.75-5.22-1.69,1.82-4.73,3.16-9.47,3.16-9.47l-7.5-2.11-10.91-3.08c-.75.39-1.5.81-2.24,1.25l10.65,3.19,7.96,2.38s-3.96,12.81-6.45,15.03c-3.78,3.39-13.48,2.03-19.36-3.76-.53-.52-.97-1.11-1.34-1.74-1.26-2.17-1.6-4.9-1.51-7.55-.67.59-1.34,1.19-1.99,1.8.22,2.24.87,4.58,2.2,6.84.12.2.21.4.33.59,5.67,8.77,18.92,8.84,22.53,5.14Zm13.61-14.19l18.76,6.12,4.27,1.39s-5.05,11.44-7.54,13.67c-1.38,1.23-2.91,2.07-4.59,2.37-2.93.52-6.29-.62-10.04-4.3-5.88-5.79-.87-19.26-.87-19.26Z"/><path class="cls-7" d="m65.96,264.28s6.43,30.89,4.18,36.22c-.98,1.36-9.94,9.7-9.94,9.7h-8.96c-2.34,0-4.24-1.89-4.24-4.23v-41.69c0-2.34,1.9-4.24,4.24-4.24h10.49c2.34,0,4.23,1.9,4.23,4.24Z"/><path class="cls-5" d="m77.18,293.91l-4.4,4.22-6.82,1.56-2.81.64c-2.04.46-4.08-.82-4.54-2.86l-7.24-31.71c-.47-2.05.81-4.08,2.85-4.55l5.13-1.17,5.96-1.36c2.04-.46,4.07.81,4.54,2.86,0,0,12.35,27.35,7.33,32.37Z"/><rect class="cls-4" x="59.48" y="253.44" width="18.43" height="39.19" rx="3.69" ry="3.69" transform="translate(-142.24 86.56) rotate(-34.4)"/><rect class="cls-6" x="71.99" y="243.15" width="18.43" height="39.19" rx="3.69" ry="3.69" transform="translate(-148.36 111.32) rotate(-39.42)"/><rect class="cls-3" x="84.02" y="232.95" width="18.43" height="39.19" rx="3.69" ry="3.69" transform="translate(-126.37 96.84) rotate(-34.4)"/></g></svg>